<svg width="19" height="18" viewBox="0 0 19 18" fill="none" xmlns="http://www.w3.org/2000/svg">
<path d="M2.5 4.5H4H16" stroke="#FA2C5A" stroke-width="2" stroke-linecap="round" stroke-linejoin="round"/>
<path d="M6.25 4.5V3C6.25 2.60218 6.40804 2.22064 6.68934 1.93934C6.97064 1.65804 7.35218 1.5 7.75 1.5H10.75C11.1478 1.5 11.5294 1.65804 11.8107 1.93934C12.092 2.22064 12.25 2.60218 12.25 3V4.5M14.5 4.5V15C14.5 15.3978 14.342 15.7794 14.0607 16.0607C13.7794 16.342 13.3978 16.5 13 16.5H5.5C5.10218 16.5 4.72064 16.342 4.43934 16.0607C4.15804 15.7794 4 15.3978 4 15V4.5H14.5Z" stroke="#FA2C5A" stroke-width="2" stroke-linecap="round" stroke-linejoin="round"/>
<path d="M10.75 8.25V12.75" stroke="white" stroke-width="2" stroke-linecap="round" stroke-linejoin="round"/>
<path d="M7.75 8.25V12.75" stroke="white" stroke-width="2" stroke-linecap="round" stroke-linejoin="round"/>
</svg>
